<svg xmlns="http://www.w3.org/2000/svg" viewBox="0 0 200 200" width="200" height="200">
  <!-- White circle background -->
  <circle cx="100" cy="100" r="100" fill="#ffffff"/>
  
  <!-- Three Gothic Windows - optimized for small size visibility -->
  
  <!-- Left Gothic Window -->
  <g transform="translate(25, 55)">
    <!-- Outer arch - thicker for visibility -->
    <path d="M 0 75 L 0 32 Q 0 12 14 12 L 14 0 Q 0 0 0 12 L 0 32 L 0 75" 
          fill="none" stroke="#000000" stroke-width="3.5" stroke-linecap="round" stroke-linejoin="round"/>
    <!-- Vertical mullion -->
    <line x1="7" y1="12" x2="7" y2="75" stroke="#000000" stroke-width="2.5"/>
    <!-- Inner arches -->
    <path d="M 0 32 Q 7 24 14 32" fill="none" stroke="#000000" stroke-width="2.2"/>
    <path d="M 0 53 Q 7 45 14 53" fill="none" stroke="#000000" stroke-width="2.2"/>
  </g>
  
  <!-- Central Gothic Window (largest and most complex) -->
  <g transform="translate(65, 45)">
    <!-- Outer arch - thickest for prominence -->
    <path d="M 0 95 L 0 38 Q 0 8 32 8 L 32 0 Q 0 0 0 8 L 0 38 L 0 95" 
          fill="none" stroke="#000000" stroke-width="4.5" stroke-linecap="round" stroke-linejoin="round"/>
    <!-- Main vertical mullions - thicker -->
    <line x1="10.5" y1="8" x2="10.5" y2="95" stroke="#000000" stroke-width="3"/>
    <line x1="16" y1="8" x2="16" y2="95" stroke="#000000" stroke-width="3"/>
    <line x1="21.5" y1="8" x2="21.5" y2="95" stroke="#000000" stroke-width="3"/>
    <!-- Branching arches - thicker for visibility -->
    <path d="M 0 38 Q 16 28 32 38" fill="none" stroke="#000000" stroke-width="3"/>
    <path d="M 10.5 38 Q 16 33 21.5 38" fill="none" stroke="#000000" stroke-width="2.5"/>
    <path d="M 0 66 Q 16 56 32 66" fill="none" stroke="#000000" stroke-width="3"/>
    <path d="M 10.5 66 Q 16 61 21.5 66" fill="none" stroke="#000000" stroke-width="2.5"/>
    <!-- Top intricate arch pattern -->
    <path d="M 0 38 Q 16 18 32 38" fill="none" stroke="#000000" stroke-width="3"/>
    <path d="M 10.5 38 Q 16 23 21.5 38" fill="none" stroke="#000000" stroke-width="2.5"/>
  </g>
  
  <!-- Right Gothic Window -->
  <g transform="translate(161, 55)">
    <!-- Outer arch -->
    <path d="M 0 75 L 0 32 Q 0 12 14 12 L 14 0 Q 0 0 0 12 L 0 32 L 0 75" 
          fill="none" stroke="#000000" stroke-width="3.5" stroke-linecap="round" stroke-linejoin="round"/>
    <!-- Vertical mullion -->
    <line x1="7" y1="12" x2="7" y2="75" stroke="#000000" stroke-width="2.5"/>
    <!-- Inner arches -->
    <path d="M 0 32 Q 7 24 14 32" fill="none" stroke="#000000" stroke-width="2.2"/>
    <path d="M 0 53 Q 7 45 14 53" fill="none" stroke="#000000" stroke-width="2.2"/>
  </g>
</svg>
